<svg width="15" height="15" viewBox="0 0 15 15" fill="none" xmlns="http://www.w3.org/2000/svg">
<g clip-path="url(#clip0_406_65)">
<path d="M11.8126 10.4854C12.8105 9.15193 13.2661 7.48995 13.0878 5.83402C12.9095 4.1781 12.1106 2.65118 10.8518 1.56064C9.59298 0.470095 7.96779 -0.103105 6.30336 -0.0435783C4.63893 0.0159484 3.05884 0.703782 1.88116 1.88146C0.703477 3.05915 0.0156433 4.63924 -0.0438834 6.30367C-0.10341 7.9681 0.46979 9.59329 1.56033 10.8521C2.65088 12.1109 4.17779 12.9098 5.83372 13.0881C7.48964 13.2664 9.15163 12.8108 10.4851 11.8129L13.6726 15.0004L15.0001 13.6754L11.8126 10.4854ZM6.56262 11.2504C5.63552 11.2504 4.72924 10.9755 3.95838 10.4604C3.18753 9.94537 2.58672 9.21328 2.23193 8.35675C1.87715 7.50022 1.78432 6.55772 1.96519 5.64844C2.14606 4.73915 2.5925 3.90392 3.24806 3.24836C3.90361 2.5928 4.73885 2.14636 5.64813 1.96549C6.55742 1.78463 7.49992 1.87745 8.35645 2.23224C9.21298 2.58703 9.94506 3.18783 10.4601 3.95869C10.9752 4.72954 11.2501 5.63582 11.2501 6.56292C11.249 7.80577 10.7547 8.99738 9.8759 9.87621C8.99708 10.755 7.80547 11.2493 6.56262 11.2504Z" fill="#696969"/>
</g>
<defs>
<clipPath id="clip0_406_65">
<rect width="15" height="15" fill="white"/>
</clipPath>
</defs>
</svg>
