<?xml version="1.0" encoding="UTF-8"?>
<svg xmlns="http://www.w3.org/2000/svg" xmlns:xlink="http://www.w3.org/1999/xlink" width="38px" height="30px" viewBox="0 0 37 30" version="1.1">
<g id="surface1">
<path style=" stroke:none;fill-rule:evenodd;fill:rgb(0.392157%,0.392157%,0.392157%);fill-opacity:1;" d="M 0.515625 -0.101562 C 12.4375 -0.101562 24.363281 -0.101562 36.28125 -0.101562 C 36.28125 9.898438 36.28125 19.898438 36.28125 29.898438 C 24.363281 29.898438 12.4375 29.898438 0.515625 29.898438 C 0.515625 19.898438 0.515625 9.898438 0.515625 -0.101562 Z M 0.515625 -0.101562 "/>
<path style=" stroke:none;fill-rule:evenodd;fill:rgb(92.156863%,92.156863%,92.156863%);fill-opacity:1;" d="M 21.464844 6.476562 C 21.738281 6.441406 21.996094 6.476562 22.253906 6.578125 C 22.023438 6.855469 21.757812 7.09375 21.464844 7.296875 C 23.144531 7.738281 24.5625 8.628906 25.710938 9.964844 C 26.117188 11.5 25.6875 12.769531 24.425781 13.769531 C 23.4375 14.316406 22.382812 14.65625 21.265625 14.796875 C 25.578125 16.445312 26.101562 18.910156 22.84375 22.191406 C 19.226562 23.953125 15.605469 23.921875 11.976562 22.089844 C 9.722656 23.664062 7.351562 23.902344 4.867188 22.808594 C 3.804688 21.132812 4.207031 19.96875 6.050781 19.316406 C 6.574219 19.179688 7.105469 19.179688 7.632812 19.316406 C 8.933594 19.785156 10.179688 20.367188 11.382812 21.058594 C 11.90625 20.667969 12.332031 20.191406 12.671875 19.625 C 14.054688 17.023438 15.4375 14.417969 16.820312 11.816406 C 17.769531 10.425781 18.789062 9.085938 19.882812 7.808594 C 16.328125 7.113281 12.90625 7.53125 9.605469 9.042969 C 8.511719 9.839844 7.621094 10.828125 6.941406 12.023438 C 6.378906 13.945312 7.039062 14.96875 8.917969 15.101562 C 10.453125 15.042969 11.339844 14.222656 11.582031 12.636719 C 11.777344 12.636719 11.976562 12.636719 12.175781 12.636719 C 12.097656 14.132812 11.375 15.121094 10 15.617188 C 8.054688 16.164062 6.640625 15.507812 5.753906 13.664062 C 5.597656 11.488281 6.421875 9.808594 8.222656 8.628906 C 10.75 7.207031 13.445312 6.558594 16.328125 6.679688 C 17.625 6.675781 18.910156 6.8125 20.179688 7.089844 C 20.722656 7.105469 21.148438 6.898438 21.464844 6.476562 Z M 21.464844 6.476562 "/>
<path style=" stroke:none;fill-rule:evenodd;fill:rgb(90.196078%,90.196078%,90.196078%);fill-opacity:1;" d="M 29.765625 9.761719 C 31.113281 9.492188 31.609375 10.039062 31.246094 11.40625 C 30.34375 14.175781 28.890625 16.570312 26.898438 18.59375 C 26.222656 19.769531 26.125 20.972656 26.601562 22.191406 C 26.957031 22.300781 27.28125 22.230469 27.589844 21.988281 C 28.5 20.878906 29.292969 19.679688 29.960938 18.390625 C 30.171875 18.570312 30.207031 18.773438 30.058594 19.007812 C 29.605469 20.570312 28.71875 21.773438 27.394531 22.601562 C 25.832031 23.164062 25.042969 22.617188 25.023438 20.957031 C 25.5625 17.808594 26.585938 14.828125 28.082031 12.023438 C 28.535156 11.175781 29.09375 10.421875 29.765625 9.761719 Z M 29.765625 9.761719 "/>
<path style=" stroke:none;fill-rule:evenodd;fill:rgb(9.803922%,9.803922%,9.803922%);fill-opacity:1;" d="M 30.355469 10.582031 C 30.574219 10.605469 30.703125 10.742188 30.75 10.992188 C 30.003906 13.367188 28.851562 15.492188 27.292969 17.363281 C 28.03125 14.96875 29.050781 12.710938 30.355469 10.582031 Z M 30.355469 10.582031 "/>
<path style=" stroke:none;fill-rule:evenodd;fill:rgb(1.568627%,1.568627%,1.568627%);fill-opacity:1;" d="M 20.871094 8.117188 C 22.234375 8.1875 23.386719 8.742188 24.328125 9.761719 C 24.472656 11.949219 23.519531 13.355469 21.464844 13.976562 C 20.28125 14.078125 19.09375 14.109375 17.90625 14.078125 C 17.863281 14.316406 17.929688 14.523438 18.105469 14.691406 C 19.292969 15.117188 20.480469 15.5625 21.660156 16.023438 C 23.324219 17.046875 23.683594 18.453125 22.75 20.238281 C 21.527344 22.023438 19.847656 22.914062 17.710938 22.910156 C 15.855469 22.773438 14.078125 22.328125 12.371094 21.578125 C 13.605469 20.292969 14.695312 18.890625 15.632812 17.363281 C 17.386719 14.265625 19.132812 11.1875 20.871094 8.117188 Z M 20.871094 8.117188 "/>
<path style=" stroke:none;fill-rule:evenodd;fill:rgb(2.352941%,2.352941%,2.352941%);fill-opacity:1;" d="M 6.25 20.035156 C 7.867188 20.191406 9.378906 20.703125 10.792969 21.578125 C 9.519531 22.632812 8.070312 22.972656 6.445312 22.601562 C 5.484375 21.828125 5.414062 20.972656 6.25 20.035156 Z M 6.25 20.035156 "/>
</g>
</svg>
